<svg width="20" height="20" viewBox="0 0 20 20" fill="none" xmlns="http://www.w3.org/2000/svg">
<rect width="20" height="20" rx="4" fill="#E4ECE9"/>
<path d="M13.7729 12.977C13.8786 13.0827 13.938 13.226 13.938 13.3754C13.938 13.5249 13.8786 13.6682 13.7729 13.7739C13.6673 13.8795 13.524 13.9389 13.3745 13.9389C13.2251 13.9389 13.0817 13.8795 12.9761 13.7739L9.99998 10.7968L7.02295 13.7729C6.91728 13.8786 6.77395 13.938 6.62451 13.938C6.47507 13.938 6.33175 13.8786 6.22607 13.7729C6.1204 13.6673 6.06104 13.5239 6.06104 13.3745C6.06104 13.225 6.1204 13.0817 6.22607 12.9761L9.2031 9.99996L6.22701 7.02293C6.12134 6.91726 6.06197 6.77393 6.06197 6.62449C6.06197 6.47505 6.12134 6.33173 6.22701 6.22605C6.33268 6.12038 6.47601 6.06102 6.62545 6.06102C6.77489 6.06102 6.91821 6.12038 7.02389 6.22605L9.99998 9.20309L12.977 6.22558C13.0827 6.11991 13.226 6.06055 13.3754 6.06055C13.5249 6.06055 13.6682 6.11991 13.7739 6.22558C13.8796 6.33126 13.9389 6.47458 13.9389 6.62402C13.9389 6.77347 13.8796 6.91679 13.7739 7.02246L10.7969 9.99996L13.7729 12.977Z" fill="#B51919"/>
</svg>
